<svg width="32" height="32" viewBox="0 0 32 32" fill="none" xmlns="http://www.w3.org/2000/svg">
<path d="M26.6667 13.3334C26.6667 21.3334 16 29.3334 16 29.3334C16 29.3334 5.33337 21.3334 5.33337 13.3334C5.33337 10.5044 6.45718 7.79133 8.45757 5.79094C10.458 3.79055 13.1711 2.66675 16 2.66675C18.829 2.66675 21.5421 3.79055 23.5425 5.79094C25.5429 7.79133 26.6667 10.5044 26.6667 13.3334Z" fill="white" fill-opacity="0.5"/>
<path d="M16 17.3333C18.2091 17.3333 20 15.5424 20 13.3333C20 11.1241 18.2091 9.33325 16 9.33325C13.7909 9.33325 12 11.1241 12 13.3333C12 15.5424 13.7909 17.3333 16 17.3333Z" fill="#0F0F0F"/>
</svg>
