<svg width="33" height="32" viewBox="0 0 33 32" fill="none" xmlns="http://www.w3.org/2000/svg">
<path d="M29.8333 22.56V26.56C29.8348 26.9313 29.7587 27.2989 29.61 27.6391C29.4612 27.9793 29.243 28.2848 28.9694 28.5358C28.6958 28.7868 28.3727 28.9779 28.021 29.0969C27.6692 29.2159 27.2964 29.2601 26.9266 29.2266C22.8237 28.7808 18.8826 27.3788 15.42 25.1333C12.1984 23.0862 9.46707 20.3549 7.41995 17.1333C5.16659 13.6549 3.76428 9.69463 3.32662 5.5733C3.2933 5.20459 3.33712 4.83298 3.45529 4.48213C3.57345 4.13128 3.76338 3.80889 4.01297 3.53546C4.26257 3.26204 4.56636 3.04358 4.90501 2.894C5.24365 2.74441 5.60974 2.66698 5.97995 2.66663H9.97995C10.627 2.66026 11.2543 2.8894 11.745 3.31134C12.2356 3.73328 12.5561 4.31923 12.6466 4.95997C12.8154 6.24006 13.1286 7.49694 13.58 8.70663C13.7593 9.18387 13.7982 9.70252 13.6918 10.2011C13.5855 10.6998 13.3384 11.1574 12.98 11.52L11.2866 13.2133C13.1847 16.5514 15.9486 19.3152 19.2866 21.2133L20.98 19.52C21.3425 19.1615 21.8002 18.9144 22.2988 18.8081C22.7974 18.7018 23.3161 18.7406 23.7933 18.92C25.003 19.3714 26.2599 19.6845 27.54 19.8533C28.1876 19.9447 28.7792 20.2709 29.202 20.77C29.6248 21.269 29.8495 21.9061 29.8333 22.56Z" fill="white" fill-opacity="0.5"/>
</svg>
