<svg width="38" height="38" viewBox="0 0 38 38" fill="none" xmlns="http://www.w3.org/2000/svg">
<rect width="38" height="38" rx="19" transform="matrix(-1 0 0 1 38 0)" fill="white" fill-opacity="0.5"/>
<path d="M9.62843 11.5075C11.4024 10.7931 13.2751 10.2863 15.1987 10C15.462 10.4139 15.7001 10.8398 15.9123 11.2758C17.9613 11.0042 20.0451 11.0042 22.0942 11.2758C22.3064 10.8398 22.5446 10.414 22.8077 10C24.7326 10.2887 26.6066 10.7967 28.3823 11.5112C31.9075 16.099 32.8632 20.5729 32.3853 24.9832C30.3209 26.3249 28.0101 27.3453 25.5536 28C25.0005 27.3456 24.511 26.6514 24.0904 25.9247C24.8893 25.6622 25.6603 25.3384 26.3946 24.957C26.2013 24.8337 26.0123 24.7067 25.8297 24.5834C23.6931 25.4673 21.3611 25.9255 19 25.9255C16.639 25.9255 14.307 25.4673 12.1704 24.5834C11.9857 24.7161 11.7967 24.8431 11.6055 24.957C12.3412 25.339 13.1137 25.6635 13.9139 25.9265C13.4939 26.6529 13.0044 27.3466 12.4507 28C9.9921 27.3479 7.6796 26.328 5.61475 24.9851C5.05411 19.8705 6.57251 15.4377 9.62843 11.5075ZM23.4852 22.2709C24.8167 22.2709 25.9167 21.208 25.9167 19.9004C25.9167 18.5928 24.8549 17.5205 23.4894 17.5205C22.1239 17.5205 21.0324 18.5928 21.0557 19.9004C21.0791 21.208 22.1282 22.2709 23.4852 22.2709ZM14.5149 22.2709C15.8486 22.2709 16.9444 21.208 16.9444 19.9004C16.9444 18.5928 15.8825 17.5205 14.5149 17.5205C13.1473 17.5205 12.0642 18.5928 12.0876 19.9004C12.111 21.208 13.1579 22.2709 14.5149 22.2709Z" fill="#0F0F0F"/>
</svg>
