<svg width="39" height="38" viewBox="0 0 39 38" fill="none" xmlns="http://www.w3.org/2000/svg">
<rect x="0.5" width="38" height="38" rx="19" fill="white" fill-opacity="0.5"/>
<path d="M25.5 7H13.5C10.1863 7 7.5 9.68629 7.5 13V25C7.5 28.3137 10.1863 31 13.5 31H25.5C28.8137 31 31.5 28.3137 31.5 25V13C31.5 9.68629 28.8137 7 25.5 7Z" fill="#0F0F0F"/>
<path d="M24.3819 21.5331C24.9147 20.5063 25.1102 19.3376 24.9405 18.1932C24.7674 17.026 24.2235 15.9453 23.3891 15.1109C22.5547 14.2765 21.474 13.7326 20.3068 13.5595C19.1624 13.3898 17.9937 13.5853 16.9669 14.1181C15.94 14.6509 15.1073 15.4939 14.5872 16.5273C14.0671 17.5606 13.8861 18.7316 14.0699 19.8738C14.2536 21.0159 14.7929 22.0711 15.6109 22.8891C16.4289 23.7071 17.4841 24.2464 18.6262 24.4301C19.7684 24.6139 20.9394 24.4329 21.9727 23.9128C23.0061 23.3927 23.8491 22.56 24.3819 21.5331Z" fill="white" fill-opacity="0.5" stroke="#0F0F0F" stroke-linecap="round" stroke-linejoin="round"/>
<path d="M25.5 14H25.5001" stroke="white" stroke-opacity="0.5" stroke-width="3" stroke-linecap="round" stroke-linejoin="round"/>
</svg>
