<svg width="39" height="38" viewBox="0 0 38 38" fill="none" xmlns="http://www.w3.org/2000/svg">
<rect x="0.5" width="38" height="38" rx="19" fill="white" fill-opacity="0.5"/>
<path fill-rule="evenodd" clip-rule="evenodd" d="M22.2497 6C23.7685 6 24.9996 7.16406 24.9996 8.6C24.9996 10.4815 26.4158 12.0603 28.2973 12.4219C29.7856 12.7079 30.7469 14.0805 30.4444 15.4876C30.1419 16.8948 28.6902 17.8037 27.2018 17.5177C26.4304 17.3694 25.6922 17.134 24.9996 16.8228V24.2C24.9996 28.5078 21.306 32 16.7498 32C12.1936 32 8.5 28.5078 8.5 24.2C8.5 20.562 11.1318 17.5116 14.6894 16.6458C16.1602 16.288 17.6595 17.1251 18.038 18.5157C18.4165 19.9064 17.5311 21.3239 16.0603 21.6818C14.8736 21.9705 13.9999 22.992 13.9999 24.2C13.9999 25.636 15.2311 26.8 16.7498 26.8C18.2686 26.8 19.4997 25.636 19.4997 24.2V8.6C19.4997 7.16406 20.7309 6 22.2497 6Z" fill="#0F0F0F"/>
</svg>
