<svg width="38" height="38" viewBox="0 0 38 38" fill="none" xmlns="http://www.w3.org/2000/svg">
<rect width="38" height="38" rx="19" fill="white" fill-opacity="0.5"/>
<path d="M19 28C16.01 28 10.68 27.7429 8.47 27.2286C7.56 26.9714 6.91 26.3286 6.65 25.4286C6.26 24.0143 6 21.0571 6 19C6 16.9429 6.26 13.9857 6.65 12.5714C6.91 11.6714 7.56 11.0286 8.47 10.7714C10.68 10.2571 16.01 10 19 10C21.99 10 27.32 10.2571 29.53 10.7714C30.44 11.0286 31.09 11.6714 31.35 12.5714C31.74 13.9857 32 16.9429 32 19C32 21.0571 31.74 24.0143 31.35 25.4286C31.09 26.3286 30.44 26.9714 29.53 27.2286C27.32 27.7429 21.99 28 19 28Z" fill="#0F0F0F"/>
<path d="M17 22L22 19L17 16V22Z" fill="white" fill-opacity="0.5"/>
<path fill-rule="evenodd" clip-rule="evenodd" d="M16.5073 22.8702C16.1938 22.6927 16 22.3603 16 22V16C16 15.6397 16.1938 15.3073 16.5073 15.1298C16.8208 14.9523 17.2056 14.9571 17.5145 15.1425L22.5145 18.1425C22.8157 18.3232 23 18.6487 23 19C23 19.3513 22.8157 19.6768 22.5145 19.8575L17.5145 22.8575C17.2056 23.0429 16.8208 23.0477 16.5073 22.8702ZM22 19L17 16V22L22 19Z" fill="white" fill-opacity="0.5"/>
</svg>
