<svg width="36" height="36" viewBox="0 0 36 36" fill="none">
<path d="M21.5937 4.89548C21.8741 7.03912 22.6384 9.18821 23.3531 11.2064C24.4033 14.1628 25.4919 17.2228 24.9201 19.6337C24.3483 22.05 21.8192 24.1937 17.4097 26.0318C12.7748 24.3082 10.4985 21.0628 10.9769 16.7864C11.3068 13.83 12.9727 10.7918 15.5568 8.44639C16.8983 7.23003 18.8832 5.82821 21.5992 4.89548M26.3881 0.0900269C7.05122 1.36639 -1.00902 24.6846 17.5306 30.09C40.4083 21.5318 20.824 7.21912 26.3881 0.0900269Z" fill="#697340"/>
<path d="M19.4495 35.91C17.3217 35.91 15.6008 34.2028 15.6008 32.0919V27.5482H19.4495V35.91Z"/>
</svg>
