<svg xmlns="http://www.w3.org/2000/svg" xmlns:xlink="http://www.w3.org/1999/xlink" version="1.1" x="0px" y="0px" style="enable-background:new 0 0 595.3 841.9;" xml:space="preserve" viewBox="45.3 339 429 105.1">
<style type="text/css">
	.st0{fill:#2977BC;}
	.st1{fill:#FFFFFF;}
</style>
<g id="Warstwa_2">
</g>
<g id="Warstwa_1">
	<polygon class="st0" points="69.9,363.7 108.2,363.7 132.9,339 45.3,339 45.3,426.6 69.9,402  "/>
	<polygon class="st1" points="150.3,356.4 125.7,381.1 125.7,419.4 87.4,419.4 62.7,444.1 150.3,444.1  "/>
	<path class="st0" d="M193.2,413.6h22.3v13.1h-39.2V357h17L193.2,413.6L193.2,413.6z"/>
	<path class="st0" d="M248.9,422.9c-5.5-3-9.8-7.3-13-12.8c-3.2-5.5-4.8-11.6-4.8-18.4c0-6.8,1.6-12.9,4.8-18.4   c3.2-5.4,7.6-9.7,13-12.7c5.5-3,11.5-4.6,18-4.6s12.6,1.5,18,4.6c5.5,3,9.8,7.3,12.9,12.7s4.7,11.6,4.7,18.4c0,6.8-1.6,13-4.8,18.4   c-3.2,5.5-7.5,9.7-12.9,12.8s-11.4,4.6-18,4.6C260.4,427.5,254.4,425.9,248.9,422.9L248.9,422.9z M280.3,406.4   c3.3-3.7,5-8.6,5-14.7c0-6.1-1.7-11.1-5-14.7c-3.3-3.7-7.8-5.5-13.4-5.5c-5.6,0-10.1,1.8-13.5,5.5c-3.3,3.6-5,8.6-5,14.8   c0,6.2,1.7,11.1,5,14.7c3.3,3.7,7.8,5.5,13.5,5.5S276.9,410.1,280.3,406.4L280.3,406.4z"/>
	<path class="st1" d="M367.4,379.1c-1.3-2.3-3.1-4.1-5.4-5.3c-2.4-1.2-5.1-1.8-8.3-1.8c-5.5,0-9.9,1.8-13.2,5.4   c-3.3,3.6-5,8.4-5,14.5c0,6.4,1.7,11.4,5.2,15c3.5,3.6,8.3,5.4,14.4,5.4c4.2,0,7.7-1.1,10.6-3.2c2.9-2.1,5-5.2,6.3-9.1h-21.6v-12.5   h37v15.8c-1.3,4.2-3.4,8.2-6.4,11.8c-3,3.6-6.8,6.6-11.5,8.8c-4.6,2.2-9.9,3.4-15.7,3.4c-6.9,0-13-1.5-18.4-4.5   c-5.4-3-9.6-7.2-12.6-12.6c-3-5.4-4.5-11.5-4.5-18.4s1.5-13,4.5-18.4c3-5.4,7.2-9.6,12.6-12.6s11.5-4.5,18.4-4.5   c8.3,0,15.4,2,21.1,6.1c5.7,4,9.5,9.6,11.4,16.8L367.4,379.1L367.4,379.1z"/>
	<path class="st1" d="M420.7,422.9c-5.5-3-9.8-7.3-13-12.8c-3.2-5.5-4.8-11.6-4.8-18.4c0-6.8,1.6-12.9,4.8-18.4   c3.2-5.4,7.6-9.7,13-12.7c5.5-3,11.5-4.6,18-4.6s12.6,1.5,18,4.6c5.5,3,9.8,7.3,12.9,12.7c3.1,5.4,4.7,11.6,4.7,18.4   c0,6.8-1.6,13-4.8,18.4c-3.2,5.5-7.5,9.7-12.9,12.8s-11.4,4.6-18,4.6S426.2,425.9,420.7,422.9L420.7,422.9z M452.1,406.4   c3.3-3.7,5-8.6,5-14.7c0-6.1-1.7-11.1-5-14.7c-3.3-3.7-7.8-5.5-13.4-5.5c-5.6,0-10.1,1.8-13.5,5.5c-3.3,3.6-5,8.6-5,14.8   c0,6.2,1.7,11.1,5,14.7s7.8,5.5,13.5,5.5C444.4,412,448.8,410.1,452.1,406.4L452.1,406.4z"/>
</g>
</svg>